# xmcd
#
# Track frame offsets:
#	150
#	15718
#	32916
#	43848
#	62328
#	80905
#	98777
#	112385
#	123520
#	136550
#	147430
#	161325
#	178427
#
# Disc length: 3015 seconds
#
# Revision: 0
# Processed by: cddbd v1.5.1PL0 Copyright (c) Steve Scherf et al.
# Submitted via: dBpowerAMP V4.0
#
DISCID=ba0bc50d
DTITLE=Hillbilly VooDoo Dolls - HuBBa HuBBa
DYEAR=1900
DGENRE=
TTITLE0=All Fried Up
TTITLE1=What's so Tuff About it
TTITLE2=Jeez Louise
TTITLE3=I Love Being In Love
TTITLE4=Elvis In The Sky
TTITLE5=Can't stand It No More
TTITLE6=Jumpin' In The Mornin'
TTITLE7=Beldonia
TTITLE8=Mohair Sam
TTITLE9=If You Think I've Lost You (Secret Weapon)
TTITLE10=Mess Around
TTITLE11=Don't You Just Know It
TTITLE12=Miss Froggy
EXTD=My name ???? Yves De Preter\nAnd this is hot stuff !!!!!!
EXTT0=
EXTT1=
EXTT2=
EXTT3=
EXTT4=
EXTT5=
EXTT6=
EXTT7=
EXTT8=
EXTT9=
EXTT10=
EXTT11=
EXTT12=
PLAYORDER=
